# xmcd
#
# Track frame offsets:
# 150
# 12450
# 28552
# 40110
# 73910
# 85815
#
# Disc length: 1275 seconds
#
#
# Revision: 0
# Processed by: cddbd v1.5.1PL2 Copyright (c) Steve Scherf et al.
# Submitted via: FreeRIP 2.945 
#
DISCID=4604f906
DTITLE=Little McArthur Duet - Little McArthur Duet - Sam's Message
DYEAR=1994
DGENRE=Country
TTITLE0=01 - Sam's Message - A. Kleiner
TTITLE1=02 - Together Again - H. Williams
TTITLE2=03 - Highway Patrol - Simpson, Rush, Payne
TTITLE3=04 - Guit-Steel Blues - J. Brown
TTITLE4=05 - Mablene - Ch. Berry
TTITLE5=06 - Tonight's my night - R. Van Shelton
EXTD=
EXTT0=
EXTT1=
EXTT2=
EXTT3=
EXTT4=
EXTT5=
PLAYORDER=
